<svg width="216" height="67" viewBox="0 0 216 67" fill="none" xmlns="http://www.w3.org/2000/svg">
<g clip-path="url(#clip0_35_82)">
<path d="M39.7499 14.3L41.2499 14.6333L42.4666 15.0667L43.4499 15.5667L44.1999 16.1L44.7666 16.6667L45.1832 17.2333L45.4499 17.7833L45.6166 18.2833L45.6832 18.7167L45.7166 19.05L45.6999 19.2667V28.1667L45.6166 29.2167L45.3999 30.1333L45.0499 30.9L44.6166 31.5333L44.1166 32.05L43.5666 32.4667L42.9832 32.7833L42.3999 33.0167L41.8499 33.1833L41.3499 33.3L40.9166 33.3667L40.5666 33.4H30.6166L29.4666 33.4833L28.4832 33.7167L27.6499 34.0833L26.9666 34.5333L26.4166 35.0667L25.9666 35.65L25.6332 36.25L25.3832 36.8667L25.2166 37.45L25.0999 37.9833L25.0332 38.4333L24.9999 38.7833V43.8833H21.2832L20.9332 43.8333L20.4666 43.7167L19.9332 43.5167L19.3499 43.2167L18.7499 42.7833L18.1499 42.1833L17.5666 41.4167L17.0332 40.4333L16.5666 39.2167L16.2166 37.75L15.9832 36L15.8999 33.95L15.9999 31.9167L16.2666 30.1833L16.6666 28.7333L17.1999 27.55L17.7999 26.6L18.4666 25.8667L19.1666 25.3167L19.8666 24.9167L20.5332 24.65L21.1332 24.4833L21.6666 24.4L22.0666 24.3833H22.3332L22.4332 24.4H36.0332V23.0167H26.2999L26.2832 18.4333L26.2499 17.8167L26.3332 17.25L26.5166 16.7333L26.7999 16.2667L27.2166 15.8333L27.7332 15.45L28.3666 15.1167L29.0999 14.8167L29.9499 14.5667L30.9166 14.3667L31.9832 14.2L33.1666 14.1L34.4499 14.0333L35.8499 14L37.9666 14.0833L39.7499 14.3ZM29.2499 17.6L28.8666 18.15L28.7332 18.8333L28.8666 19.5167L29.2499 20.0833L29.7999 20.45L30.4832 20.6L31.1666 20.45L31.7166 20.0833L32.0999 19.5167L32.2332 18.8333L32.0999 18.15L31.7166 17.6L31.1666 17.2333L30.4832 17.0833L29.7999 17.2333L29.2499 17.6ZM51.0666 24.1833L51.5332 24.2833L52.0666 24.4833L52.6499 24.7833L53.2499 25.2333L53.8499 25.8167L54.4332 26.6L54.9666 27.5833L55.4332 28.8L55.7832 30.2667L56.0166 32L56.0999 34.05L55.9999 36.1L55.7332 37.8333L55.3332 39.2667L54.7999 40.45L54.1999 41.4L53.5332 42.15L52.8332 42.7L52.1332 43.1L51.4666 43.3667L50.8666 43.5167L50.3332 43.6L49.9332 43.6333L49.6666 43.6167H35.9666V44.9833H45.6999L45.7166 49.5833L45.7499 50.1833L45.6666 50.75L45.4832 51.2667L45.1999 51.75L44.7832 52.1667L44.2666 52.5667L43.6332 52.9L42.8999 53.1833L42.0499 53.4333L41.0832 53.65L40.0166 53.8L38.8332 53.9167L37.5499 53.9833L36.1499 54L34.0332 53.9333L32.2499 53.7L30.7499 53.3667L29.5332 52.95L28.5499 52.45L27.7999 51.9L27.2332 51.3333L26.8166 50.7667L26.5499 50.2167L26.3832 49.7167L26.3166 49.3L26.2832 48.9667L26.2999 48.75V39.85L26.3832 38.7833L26.5999 37.8833L26.9499 37.1167L27.3832 36.4833L27.8832 35.95L28.4332 35.55L29.0166 35.2167L29.5999 34.9833L30.1499 34.8167L30.6499 34.7167L31.0832 34.65L31.4332 34.6167L31.6499 34.6H41.3832L42.5332 34.5167L43.5166 34.2833L44.3499 33.9333L45.0332 33.4667L45.5832 32.9333L46.0332 32.35L46.3666 31.75L46.6166 31.15L46.7832 30.5667L46.8999 30.0333L46.9666 29.5667L46.9999 29.2167V24.1167H50.4832L50.7166 24.1333L51.0666 24.1833ZM40.2832 47.9333L39.8999 48.4833L39.7666 49.1667L39.8999 49.85L40.2832 50.4L40.8332 50.7833L41.5166 50.9167L42.1999 50.7833L42.7499 50.4L43.1332 49.85L43.2666 49.1667L43.1332 48.4833L42.7499 47.9333L42.1999 47.55L41.5166 47.4167L40.8332 47.55L40.2832 47.9333Z" fill="#CBD5E1"/>
</g>
<path d="M130.664 13.7103C130.348 13.8182 129.69 14.034 129.206 14.1891L128.313 14.4656V29.059V43.6524H129.858H131.402V36.3355V29.0186L132.161 28.5195C133.041 27.9328 134.311 27.2854 135.043 27.0427C135.842 26.7729 136.305 26.7055 137.071 26.7392C137.702 26.7662 137.817 26.7931 138.287 27.0157C139.153 27.4338 139.805 28.243 140.208 29.403C140.523 30.3134 140.537 30.6775 140.537 37.3605V43.6524H142.082H143.633L143.606 36.4501L143.586 29.2546L143.438 28.7286C142.854 26.6987 141.443 25.2353 139.603 24.7633C137.447 24.2036 134.223 24.9049 131.98 26.4155C131.725 26.5841 131.49 26.7257 131.463 26.7257C131.429 26.7257 131.402 23.8057 131.402 20.1169C131.402 14.8703 131.382 13.508 131.322 13.5148C131.275 13.5148 130.979 13.6024 130.664 13.7103Z" fill="#CBD5E1"/>
<path d="M186.813 18.1612V18.3635H187.451H188.089V20.1169V21.8702H188.358H188.627V20.1169V18.3635H189.265H189.903V18.1612V17.9589H188.358H186.813V18.1612Z" fill="#CBD5E1"/>
<path d="M190.44 19.9146V21.8702H190.675H190.91L190.917 20.2652L190.924 18.667L191.434 20.2383L191.945 21.8095L192.213 21.7893L192.475 21.7691L192.999 20.218L193.516 18.667L193.523 20.2652L193.53 21.8702H193.765H194V19.9078V17.9521L193.691 17.9724L193.375 17.9926L192.804 19.6313C192.489 20.5282 192.207 21.2431 192.18 21.2161C192.153 21.1891 192.005 20.7373 191.851 20.218C191.696 19.6988 191.481 18.9772 191.374 18.613L191.172 17.9589H190.81H190.44V19.9146Z" fill="#CBD5E1"/>
<path d="M119.433 18.8693L117.902 19.4088V22.0523V24.7026H116.827H115.753V25.6804V26.6583H116.827H117.895L117.922 33.348C117.942 39.4646 117.949 40.085 118.056 40.4829C118.392 41.7372 119.185 42.7151 120.32 43.268C121.321 43.7603 121.818 43.8682 123.295 43.902L124.551 43.9357V43.1264V42.3172L124.101 42.27C123.43 42.1958 122.711 42.0002 122.254 41.7507C121.509 41.3528 121.166 40.6919 121.052 39.4444C121.012 38.9993 120.992 36.2411 121.005 32.6939L121.025 26.692L122.792 26.6718L124.551 26.6583V25.6804V24.7026L122.792 24.6891L121.025 24.6689L120.992 21.4993L120.958 18.323L119.433 18.8693Z" fill="#CBD5E1"/>
<path d="M84.1518 24.2777C81.1763 24.534 78.5435 25.586 77.0457 27.1101L76.5957 27.5754L76.6091 40.0108L76.6293 52.453L78.1741 53.006C79.0271 53.3094 79.7256 53.5657 79.739 53.5657C79.7457 53.5657 79.7525 51.0436 79.7525 47.9684C79.7525 44.8865 79.7659 42.3711 79.786 42.3711C79.8062 42.3711 79.9405 42.4453 80.0748 42.533C80.6256 42.8769 81.6196 43.3355 82.3652 43.585C83.5271 43.9761 84.2659 44.084 85.5219 44.0368C86.7174 43.9964 87.5033 43.8278 88.363 43.4299C90.6063 42.3914 92.2384 39.9973 92.7959 36.9222C92.9906 35.8567 93.0041 33.3076 92.8295 32.1005C92.2183 28.0003 90.2436 25.2286 87.416 24.5003C86.6369 24.3047 85.0853 24.1968 84.1518 24.2777ZM85.7906 26.4222C87.4697 26.8201 88.6182 28.3577 89.1152 30.8394C89.4511 32.5321 89.4846 35.3577 89.1891 37.0503C88.6854 39.9771 87.3354 41.5282 85.045 41.8316C83.7286 42.007 82.0495 41.5551 80.3569 40.5773L79.786 40.2469L79.7659 34.0292L79.7525 27.8114L79.9741 27.6429C80.5047 27.2382 82.1301 26.6043 83.1107 26.429C83.8159 26.3009 85.2533 26.3009 85.7906 26.4222Z" fill="#CBD5E1"/>
<path d="M98.0214 24.7701L96.5102 25.2894L96.4901 32.2151C96.4766 40.0176 96.4565 39.6602 96.9804 40.7325C97.6587 42.1149 99.217 43.3423 100.876 43.8009C101.346 43.929 101.581 43.9492 102.757 43.9492C104.241 43.9492 105.094 43.8481 106.417 43.5176C107.236 43.3153 108.325 42.9511 108.936 42.6747L109.305 42.5128V43.639C109.305 45.4463 109.137 46.9367 108.828 47.8606C108.533 48.7238 107.78 49.5937 106.854 50.1197C105.846 50.6997 104.751 51.0234 102.736 51.3403C102.266 51.4145 101.789 51.4887 101.675 51.5089L101.467 51.5426L101.716 52.507L101.964 53.4646L102.528 53.4444C104.751 53.3769 107.398 52.5677 109.117 51.4415C109.728 51.0369 110.742 50.0186 111.051 49.4926C111.535 48.6631 111.878 47.3683 112.106 45.4733C112.2 44.6775 112.213 43.2816 112.24 34.6294L112.267 24.7026H110.722H109.171L109.157 32.4377L109.137 40.1795L108.566 40.5302C106.907 41.5485 105.195 42.0003 103.65 41.8317C101.655 41.6091 100.298 40.5841 99.7274 38.8645C99.6065 38.5138 99.5998 38.0417 99.5662 31.3722L99.5326 24.2441L98.0214 24.7701Z" fill="#CBD5E1"/>
<path d="M153.936 24.3047C152.096 24.5542 150.504 25.3837 149.221 26.7527C147.361 28.7286 146.467 31.3451 146.602 34.4338C146.716 36.902 147.287 38.7767 148.449 40.5233C149.698 42.3846 151.391 43.5175 153.527 43.9019C154.366 44.057 156.025 44.0503 156.818 43.8952C158.618 43.5445 159.887 42.8567 161.076 41.5956C162.997 39.559 163.937 36.7671 163.823 33.4424C163.783 32.1746 163.662 31.4328 163.333 30.3808C162.862 28.8635 162.043 27.5349 160.901 26.4492C159.773 25.3702 158.678 24.7835 157.127 24.4261C156.455 24.271 154.668 24.2035 153.936 24.3047ZM156.63 26.6245C158.349 27.164 159.538 28.6409 160.115 30.9405C160.344 31.8307 160.418 32.6062 160.418 34.0089C160.418 38.0079 159.397 40.5975 157.436 41.5619C155.595 42.4655 153.466 42.1958 152.163 40.8875C150.927 39.6534 150.222 37.7517 150 35.0879C149.718 31.6621 150.504 28.796 152.082 27.4742C153.312 26.4492 155.065 26.1188 156.63 26.6245Z" fill="#CBD5E1"/>
<path d="M173.985 24.3249C171.372 24.7093 169.727 25.35 167.49 26.8471L166.731 27.3529V35.4993V43.6524H168.276H169.821V35.7016V27.744L170.372 27.4068C171.05 26.982 171.735 26.692 172.568 26.4762C173.421 26.2469 174.898 26.2199 175.631 26.4155C177.189 26.8269 178.21 27.8249 178.64 29.3423C178.781 29.8548 178.787 29.9222 178.807 36.7536L178.828 43.6524H180.366H181.91V36.2006C181.91 27.8991 181.924 28.1689 181.454 27.1978C181.266 26.7999 181.071 26.5504 180.567 26.0446C179.983 25.4511 179.855 25.3567 179.157 25.0128C178.062 24.48 177.269 24.3047 175.765 24.2642C174.999 24.244 174.415 24.2642 173.985 24.3249Z" fill="#CBD5E1"/>
<defs>
<clipPath id="clip0_35_82">
<rect width="40" height="40" fill="white" transform="translate(16 14)"/>
</clipPath>
</defs>
</svg>
