<svg width="216" height="67" viewBox="0 0 216 67" fill="none" xmlns="http://www.w3.org/2000/svg">
<g clip-path="url(#clip0_35_145)">
<path d="M31.0316 22C25.6898 22 22.3509 24.6434 21.0156 29.9301C23.0189 27.2864 25.356 26.2952 28.0269 26.9564C29.5505 27.3333 30.6398 28.4275 31.8455 29.6388C33.8094 31.6113 36.0825 33.895 41.0473 33.895C46.3891 33.895 49.7276 31.2516 51.0629 25.9649C49.06 28.6086 46.7229 29.5998 44.052 28.9386C42.528 28.5618 41.4391 27.4675 40.2334 26.2563C38.2691 24.2838 35.9964 22 31.0316 22ZM21.0156 33.895C15.6742 33.895 12.3353 36.5384 11 41.8251C13.0033 39.1814 15.34 38.1903 18.0109 38.8514C19.5349 39.2283 20.6242 40.3225 21.8295 41.5334C23.7938 43.5066 26.0668 45.7896 31.0316 45.7896C36.3731 45.7896 39.7116 43.1466 41.0473 37.8599C39.044 40.5036 36.7069 41.4947 34.0364 40.8336C32.5124 40.4567 31.423 39.3625 30.2174 38.1512C28.2535 36.1787 25.9804 33.895 21.0156 33.895Z" fill="#CBD5E1"/>
<path d="M71.0916 32.0237H67.5958V38.7205C67.5958 40.5062 68.7799 40.4785 71.0916 40.3667V43.0731C66.4117 43.6311 64.5509 42.3479 64.5509 38.7205V32.0241H61.9573V29.1224H64.5509V25.3746L67.5958 24.4821V29.1224H71.0916V32.0237ZM84.4177 29.1224H87.4626V43.0731H84.4177V41.0642C83.3465 42.5432 81.6831 43.4361 79.4843 43.4361C75.6498 43.4361 72.464 40.2272 72.464 36.0977C72.464 31.9405 75.6498 28.7597 79.484 28.7597C81.6831 28.7597 83.3465 29.6522 84.4177 31.1035V29.1224ZM79.9633 40.5621C82.5004 40.5621 84.4177 38.6927 84.4177 36.0977C84.4177 33.5027 82.5004 31.6334 79.9633 31.6334C77.4261 31.6334 75.5089 33.5027 75.5089 36.0977C75.5089 38.6927 77.4261 40.5621 79.9633 40.5621ZM92.5373 27.0295C91.4657 27.0295 90.592 26.137 90.592 25.1046C90.593 24.5943 90.7982 24.1052 91.1628 23.7443C91.5274 23.3835 92.0217 23.1804 92.5373 23.1794C93.0529 23.1804 93.5471 23.3835 93.9117 23.7443C94.2763 24.1052 94.4816 24.5943 94.4826 25.1046C94.4826 26.137 93.6084 27.0295 92.5373 27.0295ZM91.0148 43.0731V29.1224H94.0593V43.0731H91.0148ZM97.5836 43.0731V22.705H100.628V43.0731H97.5836ZM120.391 29.1224H123.605L119.179 43.0731H116.191L113.259 33.6704L110.299 43.0731H107.31L102.884 29.1224H106.098L108.833 38.7486L111.793 29.1224H114.696L117.628 38.7486L120.391 29.1224ZM127.383 27.0299C126.312 27.0299 125.438 26.137 125.438 25.1046C125.439 24.5943 125.644 24.1052 126.009 23.7443C126.373 23.3835 126.867 23.1804 127.383 23.1794C127.899 23.1804 128.393 23.3835 128.757 23.7443C129.122 24.1052 129.327 24.5943 129.328 25.1046C129.328 26.137 128.454 27.0295 127.383 27.0295M125.861 43.0727V29.1224H128.905V43.0731L125.861 43.0727ZM139.844 28.759C143.002 28.759 145.257 30.8796 145.257 34.507V43.0727H142.212V34.8141C142.212 32.6939 140.972 31.5779 139.055 31.5779C137.053 31.5779 135.474 32.7494 135.474 35.5956V43.0731H132.429V29.1224H135.474V30.9081C136.405 29.4569 137.927 28.759 139.844 28.759ZM159.692 23.542H162.736V43.0731H159.692V41.0642C158.62 42.5432 156.957 43.4361 154.758 43.4361C150.924 43.4361 147.738 40.2272 147.738 36.0977C147.738 31.9405 150.924 28.7597 154.758 28.7597C156.957 28.7597 158.62 29.6522 159.692 31.1035V23.542ZM155.237 40.5621C157.774 40.5621 159.692 38.6927 159.692 36.0977C159.692 33.5027 157.774 31.6334 155.237 31.6334C152.7 31.6334 150.783 33.5027 150.783 36.0977C150.783 38.6927 152.7 40.5621 155.237 40.5621ZM172.942 43.4361C168.685 43.4361 165.499 40.2272 165.499 36.0977C165.499 31.9405 168.685 28.7597 172.942 28.7597C175.705 28.7597 178.101 30.1825 179.229 32.359L176.607 33.8657C175.987 32.5544 174.605 31.717 172.914 31.717C170.433 31.717 168.544 33.5867 168.544 36.0977C168.544 38.6087 170.433 40.4785 172.914 40.4785C174.605 40.4785 175.987 39.6134 176.664 38.3297L179.286 39.8087C178.101 42.013 175.705 43.4361 172.942 43.4361ZM184.303 32.9729C184.303 35.5116 191.887 33.9771 191.887 39.139C191.887 41.929 189.435 43.4361 186.39 43.4361C183.571 43.4361 181.541 42.1802 180.639 40.1714L183.261 38.6646C183.712 39.9205 184.839 40.6735 186.39 40.6735C187.743 40.6735 188.786 40.2272 188.786 39.1112C188.786 36.628 181.202 38.023 181.202 33.0287C181.202 30.4056 183.486 28.7597 186.362 28.7597C188.673 28.7597 190.59 29.8199 191.577 31.6615L189.012 33.0842C188.504 31.9964 187.518 31.4942 186.362 31.4942C185.262 31.4942 184.303 31.9682 184.303 32.9729ZM197.3 32.9729C197.3 35.5116 204.884 33.9771 204.884 39.139C204.884 41.929 202.431 43.4361 199.387 43.4361C196.568 43.4361 194.537 42.1802 193.635 40.1714L196.257 38.6646C196.708 39.9205 197.836 40.6735 199.387 40.6735C200.74 40.6735 201.783 40.2272 201.783 39.1112C201.783 36.628 194.199 38.023 194.199 33.0287C194.199 30.4056 196.483 28.7597 199.359 28.7597C201.67 28.7597 203.587 29.8199 204.574 31.6615L202.009 33.0842C201.501 31.9964 200.514 31.4942 199.359 31.4942C198.259 31.4942 197.3 31.9682 197.3 32.9729Z" fill="#CBD5E1"/>
</g>
<defs>
<clipPath id="clip0_35_145">
<rect width="194" height="24" fill="white" transform="translate(11 22)"/>
</clipPath>
</defs>
</svg>
