<svg width="216" height="67" viewBox="0 0 216 67" fill="none" xmlns="http://www.w3.org/2000/svg">
<g clip-path="url(#clip0_35_169)">
<path d="M91.6499 27.925C91.6499 28.8625 91.7249 29.6125 91.9124 30.25C92.0999 30.7 92.3624 31.3 92.6999 31.975C92.8499 32.125 92.8874 32.35 92.8874 32.5375C92.8874 32.8 92.7374 33.025 92.3999 33.2875L90.8249 34.3375C90.5999 34.4875 90.3749 34.5625 90.1874 34.5625C89.9249 34.5625 89.6999 34.4125 89.4374 34.1875C89.0999 33.8125 88.7999 33.4375 88.5374 33.025C88.3124 32.6125 88.0499 32.125 87.7874 31.5625C85.8374 33.85 83.3999 35.0125 80.4374 35.0125C78.3374 35.0125 76.6874 34.4125 75.4499 33.2125C74.2499 32.0125 73.6124 30.4 73.6124 28.375C73.6124 26.3125 74.3624 24.625 75.8624 23.275C77.3999 22 79.4249 21.325 81.9749 21.325C82.8374 21.325 83.6249 21.4 84.6374 21.55C85.4999 21.6625 86.5124 21.85 87.4874 22.075V20.275C87.4874 18.3625 87.1124 17.125 86.3249 16.2625C85.4999 15.475 84.1874 15.1375 82.2749 15.1375C81.3749 15.1375 80.4749 15.25 79.5749 15.4375C78.6374 15.6625 77.7374 15.925 76.8749 16.3C76.4624 16.45 76.1249 16.5625 76.0124 16.6C75.8249 16.675 75.7124 16.675 75.5999 16.675C75.2624 16.675 75.0749 16.45 75.0749 15.925V14.6875C75.0749 14.3125 75.1124 14.0125 75.2624 13.825C75.3749 13.6375 75.5999 13.4875 75.9374 13.375C76.8374 12.85 77.8499 12.475 79.0874 12.175C80.3596 11.8378 81.6714 11.6738 82.9874 11.6875C85.9499 11.6875 88.1249 12.3625 89.5124 13.7125C90.8999 15.0625 91.5749 17.125 91.5749 19.8625V27.925H91.6499ZM81.5249 31.75C82.3499 31.75 83.1749 31.6 84.0749 31.3C84.9749 31 85.7624 30.4375 86.4374 29.6875C86.8499 29.2 87.1499 28.675 87.3749 28.075C87.3749 27.475 87.5624 26.7625 87.5624 25.9V24.8875C86.8124 24.625 86.0624 24.625 85.2374 24.4375C84.4651 24.3526 83.6893 24.3025 82.9124 24.2875C81.2249 24.2875 80.0249 24.625 79.1999 25.3C78.3749 25.975 77.9999 26.9125 77.9999 28.15C77.9999 29.35 78.2624 30.25 78.8999 30.8125C79.4999 31.45 80.3624 31.75 81.5249 31.75ZM101.55 34.4125C101.187 34.4264 100.826 34.3491 100.5 34.1875C100.387 34 100.2 33.6625 100.05 33.2125L94.1999 13.9375C94.0499 13.375 93.9749 13.1125 93.9749 12.925C93.9749 12.5125 94.1624 12.2875 94.5749 12.2875H97.0124C97.4999 12.2875 97.8374 12.3625 97.9874 12.55C98.2124 12.7 98.3624 13.0375 98.5124 13.525L102.675 30.025L106.575 13.525C106.687 13.0375 106.837 12.7 107.062 12.55C107.25 12.4 107.587 12.2875 108 12.2875H110.062C110.512 12.2875 110.85 12.3625 111.037 12.55C111.225 12.7 111.412 13.0375 111.525 13.525L115.5 30.25L119.775 13.525C119.925 13.0375 120.112 12.7 120.262 12.55C120.487 12.4 120.787 12.2875 121.237 12.2875H123.562C123.975 12.2875 124.2 12.5125 124.2 12.925C124.2 13.0375 124.162 13.1875 124.125 13.375C124.125 13.375 124.05 13.675 123.975 13.9375L117.937 33.2125C117.787 33.7375 117.637 34 117.375 34.1875C117.225 34.3375 116.887 34.45 116.475 34.45H114.337C113.85 34.45 113.625 34.375 113.325 34.1875C113.073 33.9202 112.915 33.5778 112.875 33.2125L109.012 17.125L105.15 33.175C105.037 33.6625 104.887 34 104.7 34.1875C104.391 34.3582 104.04 34.4363 103.687 34.4125H101.55ZM133.612 35.0875C132.375 35.0875 130.987 34.9375 129.75 34.6375C128.512 34.3375 127.537 34 126.9 33.6625C126.574 33.5066 126.3 33.259 126.112 32.95C126.009 32.7401 125.958 32.5087 125.962 32.275V31C125.962 30.475 126.15 30.25 126.525 30.25H126.975C127.125 30.25 127.35 30.4375 127.612 30.55C128.437 30.925 129.375 31.225 130.35 31.4125C131.362 31.6 132.375 31.7125 133.312 31.7125C134.887 31.7125 136.125 31.45 136.95 30.8875C137.812 30.25 138.262 29.5375 138.262 28.525C138.262 27.8125 138 27.25 137.587 26.7625C137.137 26.3125 136.275 25.8625 135.075 25.4875L131.437 24.3625C129.637 23.7625 128.287 22.9375 127.462 21.8125C126.657 20.7711 126.222 19.4913 126.225 18.175C126.225 17.125 126.45 16.225 126.9 15.4375C127.35 14.6125 127.95 13.9375 128.625 13.375C129.45 12.8125 130.275 12.4 131.287 12.1C132.262 11.8 133.312 11.65 134.437 11.65C134.962 11.65 135.525 11.6875 136.125 11.7625C136.65 11.8375 137.175 11.95 137.7 12.025C138.225 12.175 138.675 12.2875 139.125 12.4375C139.575 12.5875 139.875 12.7375 140.175 12.8875C140.512 13.075 140.775 13.2625 140.925 13.4875C141.075 13.7125 141.15 13.975 141.15 14.3125V15.5125C141.15 16.0375 140.962 16.3 140.587 16.3C140.4 16.3 140.062 16.1875 139.612 16C138.225 15.3625 136.612 15.025 134.85 15.025C133.425 15.025 132.375 15.25 131.512 15.7375C130.762 16.1875 130.35 16.9375 130.35 17.95C130.35 18.6625 130.612 19.2625 131.1 19.7125C131.587 20.2 132.525 20.65 133.837 21.1L137.4 22.225C139.2 22.75 140.475 23.575 141.262 24.625C142.012 25.6375 142.387 26.8 142.387 28.1125C142.387 29.1625 142.162 30.1375 141.75 31C141.3 31.825 140.7 32.575 139.875 33.175C139.162 33.8125 138.225 34.2625 137.175 34.6C136.125 34.9375 134.85 35.0875 133.612 35.0875ZM138.3 47.2375C130.087 53.275 118.162 56.5 108 56.5C93.5624 56.5 80.6249 51.175 70.8374 42.3625C70.0499 41.65 70.7624 40.7125 71.6999 41.275C82.2749 47.3875 95.2874 51.1 108.787 51.1C117.9 51.1 127.912 49.225 137.1 45.25C138.487 44.6875 139.65 46.225 138.3 47.2375ZM141.75 43.375C140.662 41.9875 134.775 42.7 132.112 43C131.325 43.1125 131.212 42.4 131.925 41.875C136.612 38.6125 144.337 39.625 145.2 40.6375C146.1 41.7625 144.975 49.4875 140.587 53.1625C139.875 53.725 139.237 53.425 139.537 52.75C140.55 50.2 142.762 44.65 141.75 43.375Z" fill="#CBD5E1"/>
</g>
<defs>
<clipPath id="clip0_35_169">
<rect width="216" height="67" fill="white"/>
</clipPath>
</defs>
</svg>
