<svg width="216" height="67" viewBox="0 0 216 67" fill="none" xmlns="http://www.w3.org/2000/svg">
<path d="M163 53C162.596 53 162.219 52.8935 161.869 52.707L158.29 50.6024C157.751 50.3092 158.021 50.2027 158.182 50.1494C158.909 49.9097 159.043 49.8562 159.797 49.4302C159.878 49.3767 159.986 49.4035 160.066 49.4567L162.812 51.0819C162.919 51.1351 163.054 51.1351 163.134 51.0819L173.874 44.9275C173.981 44.8742 174.035 44.7675 174.035 44.6345V32.3525C174.035 32.219 173.981 32.1127 173.874 32.0593L163.134 25.9316C163.027 25.8781 162.892 25.8781 162.812 25.9316L152.072 32.0593C151.965 32.1125 151.911 32.2458 151.911 32.3523V44.6343C151.911 44.741 151.965 44.874 152.072 44.9275L155.006 46.6059C156.594 47.4051 157.59 46.4726 157.59 45.5402V33.4179C157.59 33.2582 157.725 33.0982 157.913 33.0982H159.286C159.447 33.0982 159.609 33.2314 159.609 33.4179V45.5402C159.609 47.6448 158.451 48.8705 156.433 48.8705C155.814 48.8705 155.329 48.8705 153.956 48.2043L151.13 46.6059C150.431 46.2064 150 45.4602 150 44.661V32.379C150 31.5798 150.431 30.8336 151.13 30.4341L161.869 24.2797C162.542 23.9068 163.458 23.9068 164.13 24.2797L174.869 30.4341C175.569 30.8336 176 31.5798 176 32.379V44.661C176 45.4602 175.569 46.2064 174.869 46.6059L164.13 52.7603C163.78 52.9202 163.377 53 163 53ZM166.311 44.5545C161.601 44.5545 160.632 42.4231 160.632 40.6115C160.632 40.4515 160.766 40.2918 160.955 40.2918H162.354C162.516 40.2918 162.65 40.3983 162.65 40.5582C162.866 41.9702 163.485 42.6629 166.338 42.6629C168.598 42.6629 169.568 42.1567 169.568 40.9577C169.568 40.265 169.298 39.759 165.772 39.4126C162.839 39.1193 161.008 38.4801 161.008 36.1623C161.008 34.0041 162.839 32.7252 165.907 32.7252C169.352 32.7252 171.048 33.8976 171.263 36.455C171.263 36.5352 171.236 36.615 171.182 36.695C171.128 36.7482 171.048 36.8015 170.967 36.8015H169.567C169.433 36.8015 169.298 36.695 169.271 36.5617C168.948 35.0966 168.114 34.6169 165.907 34.6169C163.431 34.6169 163.135 35.4696 163.135 36.1088C163.135 36.8815 163.485 37.1212 166.822 37.5474C170.133 37.9739 171.694 38.5866 171.694 40.8777C171.667 43.2223 169.729 44.5545 166.311 44.5545Z" fill="#CBD5E1"/>
<g clip-path="url(#clip0_35_132)">
<path d="M56.6389 32.8559C56.6389 32.4019 56.3905 31.9728 55.9933 31.7458L45.4651 25.5904C45.291 25.4894 45.0925 25.439 44.894 25.4136H44.7945C44.596 25.4136 44.3973 25.4894 44.2235 25.5904L33.6953 31.7458C33.2978 31.9728 33.0497 32.4017 33.0497 32.8559L33.0746 49.4048C33.0746 49.6318 33.1988 49.8588 33.3973 49.9599C33.596 50.086 33.8442 50.086 34.0182 49.9599L40.2755 46.3271C40.6728 46.1001 40.9211 45.6712 40.9211 45.2172V37.4724C40.9211 37.0184 41.1693 36.5895 41.5667 36.3625L44.2235 34.7983C44.4222 34.6722 44.6457 34.6215 44.8691 34.6215C45.0925 34.6215 45.316 34.6722 45.49 34.7983L48.1468 36.3625C48.5442 36.5895 48.7924 37.0182 48.7924 37.4724V45.2172C48.7924 45.6712 49.0407 46.1001 49.438 46.3271L55.6953 49.9599C55.792 50.0217 55.9039 50.0545 56.0181 50.0545C56.1323 50.0545 56.2442 50.0217 56.3409 49.9599C56.5396 49.8588 56.6638 49.6318 56.6638 49.4048L56.6389 32.8559ZM107.244 10.0757C107.045 9.97467 106.797 9.97467 106.623 10.0757C106.424 10.2019 106.3 10.4036 106.3 10.6306V27.0284C106.3 27.1797 106.226 27.331 106.077 27.432C105.928 27.5075 105.779 27.5075 105.63 27.432L102.998 25.8932C102.805 25.7816 102.587 25.7229 102.365 25.7229C102.143 25.7229 101.924 25.7816 101.731 25.8932L91.2032 32.0738C90.8059 32.3008 90.5576 32.7298 90.5576 33.1838V45.5197C90.5576 45.9738 90.8059 46.4029 91.2032 46.6299L101.731 52.8105C101.924 52.9222 102.143 52.9809 102.365 52.9809C102.587 52.9809 102.805 52.9222 102.998 52.8105L113.526 46.6299C113.923 46.4029 114.172 45.974 114.172 45.5197V14.768C114.172 14.2886 113.923 13.86 113.526 13.6327L107.244 10.0757ZM106.276 41.4583C106.276 41.5845 106.226 41.6853 106.126 41.7357L102.526 43.8547C102.476 43.8797 102.421 43.8926 102.365 43.8926C102.309 43.8926 102.253 43.8797 102.203 43.8547L98.6028 41.7357C98.5033 41.6853 98.4537 41.5592 98.4537 41.4583V37.2201C98.4537 37.0939 98.5033 36.9931 98.6028 36.9427L102.203 34.8234C102.253 34.7985 102.309 34.7856 102.365 34.7856C102.421 34.7856 102.476 34.7985 102.526 34.8234L106.126 36.9427C106.226 36.9929 106.276 37.1192 106.276 37.2201V41.4583ZM142.28 37.1192C142.677 36.8922 142.901 36.4633 142.901 36.0091V33.0072C142.901 32.5532 142.652 32.1243 142.28 31.8973L131.826 25.7419C131.633 25.6303 131.415 25.5716 131.193 25.5716C130.971 25.5716 130.753 25.6303 130.56 25.7419L120.032 31.9224C119.634 32.1494 119.386 32.5783 119.386 33.0323V45.3685C119.386 45.8225 119.634 46.2514 120.032 46.4784L130.485 52.5329C130.883 52.7599 131.354 52.7599 131.727 52.5329L138.059 48.951C138.257 48.8499 138.382 48.6229 138.382 48.3959C138.382 48.1689 138.257 47.9419 138.059 47.8409L127.481 41.6602C127.282 41.5341 127.158 41.3324 127.158 41.1054V37.2456C127.158 37.0186 127.282 36.7916 127.481 36.6906L130.783 34.7732C130.88 34.7114 130.992 34.6786 131.106 34.6786C131.22 34.6786 131.332 34.7114 131.429 34.7732L134.731 36.6906C134.93 36.8167 135.054 37.0184 135.054 37.2456V40.2729C135.054 40.4999 135.178 40.7269 135.377 40.8277C135.474 40.8896 135.586 40.9224 135.7 40.9224C135.814 40.9224 135.926 40.8896 136.023 40.8277L142.28 37.1192Z" fill="#CBD5E1"/>
<path d="M131.032 36.5389C131.068 36.5142 131.112 36.501 131.156 36.501C131.2 36.501 131.243 36.5142 131.28 36.5389L133.291 37.7245C133.366 37.7752 133.415 37.8507 133.415 37.9515V40.3231C133.415 40.4239 133.366 40.4997 133.291 40.5501L131.28 41.7357C131.243 41.7604 131.2 41.7736 131.156 41.7736C131.112 41.7736 131.068 41.7604 131.032 41.7357L129.02 40.5501C128.946 40.4997 128.896 40.4239 128.896 40.3231V37.9517C128.896 37.8507 128.946 37.7749 129.02 37.7247L131.032 36.5389Z" fill="#CBD5E1"/>
<mask id="mask0_35_132" style="mask-type:luminance" maskUnits="userSpaceOnUse" x="61" y="25" width="25" height="28">
<path d="M74.2438 25.7923C74.0509 25.6807 73.8327 25.6221 73.6106 25.6221C73.3886 25.6221 73.1704 25.6807 72.9775 25.7923L62.5239 31.9221C62.1264 32.1491 61.903 32.578 61.903 33.032V45.3178C61.903 45.7718 62.1513 46.2007 62.5239 46.4277L72.9775 52.558C73.1704 52.6696 73.3886 52.7282 73.6106 52.7282C73.8327 52.7282 74.0509 52.6696 74.2438 52.558L84.6977 46.4277C85.0949 46.2007 85.3186 45.7718 85.3186 45.3178V33.0323C85.3186 32.5783 85.07 32.1493 84.6977 31.9223L74.2438 25.7923Z" fill="white"/>
</mask>
<g mask="url(#mask0_35_132)">
<path d="M85.3929 45.318V33.0323C85.3929 32.5782 85.1198 32.1493 84.7226 31.9223L74.2187 25.7923C74.0973 25.7161 73.9624 25.6648 73.8216 25.6411L85.3181 45.5957C85.3678 45.5199 85.3927 45.4191 85.3927 45.3182M62.474 31.9223C62.077 32.1493 61.8037 32.5785 61.8037 33.0325V45.3182C61.8037 45.7723 62.1017 46.2012 62.474 46.4282L72.9775 52.5584C73.2259 52.7097 73.4989 52.7603 73.7969 52.7097L62.5486 31.897L62.474 31.9223Z" fill="#CBD5E1"/>
<path fill-rule="evenodd" clip-rule="evenodd" d="M84.7473 46.428C85.0453 46.2514 85.2688 45.9486 85.3682 45.6208L73.8464 25.6408C73.5484 25.5904 73.2255 25.6155 72.9526 25.7921L62.5237 31.8972L73.7718 52.7348C73.9354 52.7076 74.0943 52.6566 74.2436 52.5835L84.7473 46.428Z" fill="#CBD5E1"/>
<path fill-rule="evenodd" clip-rule="evenodd" d="M84.7472 46.428L74.2687 52.5582C74.1207 52.6348 73.9613 52.6859 73.7969 52.7094L73.9956 53.0879L85.6163 46.2516V46.1001L85.3183 45.5955C85.2687 45.9486 85.0452 46.2514 84.7472 46.428Z" fill="#CBD5E1"/>
<path fill-rule="evenodd" clip-rule="evenodd" d="M84.7472 46.428L74.2687 52.5582C74.1207 52.6348 73.9613 52.6859 73.7969 52.7094L73.9956 53.0879L85.6163 46.2516V46.1001L85.3183 45.5955C85.2687 45.9486 85.0452 46.2514 84.7472 46.428Z" fill="#CBD5E1"/>
</g>
</g>
<defs>
<clipPath id="clip0_35_132">
<rect width="110" height="43" fill="white" transform="translate(33 10)"/>
</clipPath>
</defs>
</svg>
