<svg width="216" height="67" viewBox="0 0 216 67" fill="none" xmlns="http://www.w3.org/2000/svg">
<g clip-path="url(#clip0_35_192)">
<path d="M64.4186 38.9195C66.8819 38.9195 68.8789 36.9225 68.8789 34.4592C68.8789 31.9958 66.8819 29.9989 64.4186 29.9989C61.9552 29.9989 59.9583 31.9958 59.9583 34.4592C59.9583 36.9225 61.9552 38.9195 64.4186 38.9195Z" fill="#CBD5E1"/>
<path fill-rule="evenodd" clip-rule="evenodd" d="M64.4186 25.3904C70.4072 25.3904 75.9704 26.2498 80.1651 27.6938C85.219 29.4338 88.3264 32.0711 88.3264 34.4592C88.3264 36.9478 85.0332 39.7496 79.6059 41.5478C75.5028 42.9072 70.1033 43.6169 64.4186 43.6169C58.5903 43.6169 53.0711 42.9507 48.9217 41.5328C43.672 39.7385 40.51 36.9004 40.51 34.4592C40.51 32.0905 43.4769 29.4735 48.4598 27.7362C52.6701 26.2683 58.3707 25.3904 64.4178 25.3904H64.4186Z" stroke="#CBD5E1" stroke-width="1.66272"/>
<path fill-rule="evenodd" clip-rule="evenodd" d="M56.5241 29.951C59.5159 24.7633 63.0393 20.3733 66.3859 17.461C70.4179 13.9521 74.255 12.5779 76.3236 13.7708C78.4795 15.014 79.2614 19.2666 78.1078 24.8663C77.2365 29.1 75.153 34.1317 72.313 39.0562C69.4012 44.1052 66.0671 48.5535 62.7662 51.4388C58.5893 55.0902 54.551 56.4115 52.4363 55.192C50.3843 54.0095 49.5995 50.1312 50.5839 44.9467C51.4157 40.5661 53.503 35.1893 56.5231 29.9509L56.5241 29.951Z" stroke="#CBD5E1" stroke-width="1.66272"/>
<path fill-rule="evenodd" clip-rule="evenodd" d="M56.5315 39.0695C53.5312 33.8877 51.4886 28.6416 50.6359 24.2879C49.6095 19.0422 50.3352 15.0315 52.402 13.8352C54.5557 12.5883 58.6306 14.0347 62.9058 17.8307C66.1381 20.7007 69.4573 25.0179 72.3055 29.9378C75.2257 34.9819 77.4143 40.0921 78.2656 44.3928C79.343 49.8353 78.471 53.9936 76.3583 55.2167C74.3083 56.4034 70.5569 55.147 66.5569 51.7048C63.1772 48.7965 59.5613 44.3028 56.5315 39.0694V39.0695Z" stroke="#CBD5E1" stroke-width="1.66272"/>
<path fill-rule="evenodd" clip-rule="evenodd" d="M113.929 45.8549L108.462 37.5954C111.225 37.3516 113.715 35.3496 113.715 31.6921C113.715 27.9704 111.073 25.5885 107.369 25.5885H99.2322V45.8395H101.753V37.793H105.791L110.953 45.8395L113.929 45.8549ZM107.067 35.5921H101.754V27.8498H107.067C109.467 27.8498 111.106 29.4283 111.106 31.7062C111.106 33.9841 109.465 35.5947 107.067 35.5947V35.5921ZM123.311 46.2181C125.711 46.2181 127.684 45.4289 129.142 43.9723L128.048 42.4836C126.893 43.6681 125.194 44.3355 123.524 44.3355C120.367 44.3355 118.423 42.028 118.241 39.2663H130.112V38.6888C130.112 34.287 127.5 30.8245 123.066 30.8245C118.876 30.8245 115.841 34.2562 115.841 38.5066C115.841 43.0919 118.969 46.2066 123.31 46.2066L123.311 46.2181ZM127.867 37.5941H118.242C118.364 35.3483 119.911 32.7046 123.039 32.7046C126.38 32.7046 127.836 35.4073 127.867 37.5941ZM145.236 45.8537V35.7731C145.236 32.2208 142.656 30.8232 139.558 30.8232C137.159 30.8232 135.277 31.6125 133.699 33.2526L134.761 34.8311C136.066 33.4348 137.495 32.797 139.255 32.797C141.381 32.797 142.96 33.9199 142.96 35.8937V38.5348C141.776 37.1681 140.106 36.5302 138.102 36.5302C135.612 36.5302 132.968 38.0792 132.968 41.3581C132.968 44.5459 135.61 46.2168 138.102 46.2168C140.076 46.2168 141.746 45.5187 142.96 44.1827V45.8511L145.236 45.8537ZM138.922 44.578C136.797 44.578 135.308 43.2433 135.308 41.3902C135.308 39.5076 136.797 38.1716 138.922 38.1716C140.531 38.1716 142.079 38.7786 142.96 39.9939V42.757C142.08 43.971 140.531 44.578 138.922 44.578ZM156.247 46.2181C158.919 46.2181 160.497 45.1247 161.621 43.6681L160.103 42.2719C159.132 43.577 157.887 44.184 156.382 44.184C153.254 44.184 151.312 41.7547 151.312 38.5066C151.312 35.2585 153.255 32.8599 156.382 32.8599C157.9 32.8599 159.145 33.4374 160.103 34.7721L161.621 33.3758C160.499 31.9179 158.919 30.8258 156.247 30.8258C151.875 30.8258 148.929 34.1663 148.929 38.5079C148.929 42.8802 151.875 46.2079 156.247 46.2079V46.2181ZM168.515 46.2181C169.85 46.2181 170.671 45.8228 171.249 45.2774L170.582 43.577C170.278 43.9107 169.683 44.184 169.033 44.184C168.032 44.184 167.544 43.3948 167.544 42.3014V33.1923H170.521V31.189H167.544V27.1811H165.266V31.189H162.837V33.1936H165.266V42.789C165.266 44.9758 166.359 46.2207 168.515 46.2207V46.2181Z" fill="#CBD5E1"/>
</g>
<defs>
<clipPath id="clip0_35_192">
<rect width="216" height="67" fill="white"/>
</clipPath>
</defs>
</svg>
