<svg width="216" height="67" viewBox="0 0 216 67" fill="none" xmlns="http://www.w3.org/2000/svg">
<path d="M134.582 2.84131C134.277 3.22869 133.063 4.77824 131.884 6.28191C130.705 7.79068 128.784 10.2475 127.615 11.7359C126.447 13.2294 124.831 15.2988 124.018 16.3387C123.21 17.3734 120.455 21.0841 117.899 24.5859C115.343 28.0826 113.24 30.937 113.214 30.9319C113.194 30.9217 112.782 30.3661 112.305 29.6933C109.5 25.7736 108.26 24.0405 107.711 23.2708C107.371 22.7917 106.502 21.5786 105.78 20.5693C105.058 19.5601 104.362 18.5865 104.23 18.403L103.996 18.0717L102.965 18.0564C102.101 18.0462 101.938 18.0564 101.959 18.1125C101.974 18.1533 102.716 19.2033 103.605 20.447C108.458 27.2161 112.107 32.3234 112.107 32.3438C112.107 32.3642 111.258 33.5417 104.154 43.3283C102.558 45.5303 101.237 47.3602 101.212 47.3907C101.181 47.4417 101.4 47.457 102.233 47.457H103.29L103.595 47.0339C104.037 46.4223 111.09 36.651 112.218 35.0963C112.747 34.3674 113.199 33.771 113.224 33.771C113.27 33.771 114.774 35.8507 121.177 44.7555C122.158 46.1113 123.001 47.2786 123.057 47.3449C123.159 47.457 123.169 47.4621 124.216 47.4468L125.273 47.4315L119.876 39.9386C116.909 35.815 114.469 32.4152 114.454 32.3795C114.444 32.3387 114.505 32.2062 114.591 32.0788C114.683 31.9514 115.364 30.9625 116.106 29.8819C120.334 23.7296 126.284 15.0695 127.148 13.8156C127.697 13.0153 129.653 10.1711 131.493 7.49504C133.332 4.81901 134.912 2.52018 135.004 2.38256C135.319 1.9442 135.141 2.1328 134.582 2.84131Z" fill="#CBD5E1"/>
<path d="M55.9556 32.7516V47.457H56.8347H57.7189L57.7493 45.887C57.7697 45.0256 57.79 41.6717 57.79 38.435C57.7951 35.1982 57.8154 29.7952 57.8307 26.4311L57.8611 20.3144L58.6793 21.5123C60.2749 23.8519 63.3238 28.317 65.7274 31.8341C67.0689 33.7965 69.1625 36.8599 70.377 38.6388C76.7594 47.9769 75.8701 46.7332 82.5218 55.638C85.9163 60.1796 88.7264 63.9311 88.767 63.9719C88.8127 64.0126 87.1155 61.4437 84.9965 58.263C79.6863 50.291 74.6708 42.7625 72.2419 39.1231C71.1189 37.441 67.8565 32.5426 64.9905 28.2406C62.1245 23.9385 59.4263 19.8863 58.9943 19.244L58.2118 18.0717L57.0837 18.0564L55.9556 18.0462V32.7516Z" fill="#CBD5E1"/>
<path d="M80.5348 18.0819C80.5145 18.0972 80.4993 24.7184 80.4993 32.7873V47.457L90.4235 47.4468L100.343 47.4315V46.6669V45.9024L91.3382 45.8871L82.3286 45.8769V39.4289V32.981L90.703 32.9708L99.0723 32.9555L99.0875 32.1756L99.1028 31.4009H90.7131H82.3286V25.5136V19.6263L91.2365 19.6162L100.139 19.6009V18.8363V18.0717L90.3524 18.0564C84.971 18.0513 80.5501 18.0615 80.5348 18.0819Z" fill="#CBD5E1"/>
<path d="M126.081 18.8363V19.6263H131.213H136.346V33.5417V47.457H137.235H138.124V33.5417V19.6263H143.282H148.445L148.429 18.8465L148.414 18.0717L137.25 18.0564L126.081 18.0462V18.8363Z" fill="#CBD5E1"/>
<path d="M157.002 38.9141C156.636 38.9855 156.199 39.1842 155.97 39.3779C155.228 40.0049 155.142 41.2486 155.797 41.8858C156.097 42.1763 156.473 42.3394 157.398 42.5688C158.694 42.9001 159.009 43.1091 159.009 43.6545C159.009 43.996 158.857 44.2254 158.496 44.4242C158.237 44.572 158.191 44.5771 157.637 44.572C157.2 44.572 157.002 44.5465 156.86 44.4853C156.57 44.3528 156.275 44.0572 156.204 43.8329L156.148 43.6341H155.665H155.183L155.213 43.8635C155.259 44.1948 155.442 44.5465 155.711 44.8166C156.158 45.2652 156.778 45.4844 157.612 45.4844C158.709 45.4793 159.471 45.0919 159.832 44.3579C159.985 44.047 160 43.9807 160 43.5322C160 43.1448 159.98 43.002 159.893 42.8185C159.634 42.268 159.116 41.9673 157.85 41.6513C156.931 41.4168 156.697 41.32 156.499 41.0855C156.397 40.9581 156.367 40.8714 156.367 40.6726C156.367 40.2598 156.57 39.9896 157.027 39.8061C157.307 39.694 158.018 39.7144 158.298 39.8418C158.592 39.9794 158.841 40.2394 158.918 40.484L158.973 40.6777H159.456H159.939L159.903 40.4585C159.731 39.3423 158.399 38.6338 157.002 38.9141Z" fill="#CBD5E1"/>
<path d="M152.911 41.4066V43.8176L152.779 44.0776C152.622 44.4038 152.357 44.5516 151.946 44.5516C151.453 44.5516 151.087 44.2764 151.001 43.8431L150.97 43.6851H150.482H150L150.035 43.9501C150.172 44.9849 151.128 45.6271 152.291 45.464C152.972 45.3723 153.46 45.0155 153.734 44.4191C153.851 44.1693 153.851 44.1489 153.867 41.5799L153.882 38.9957H153.394H152.911V41.4066Z" fill="#CBD5E1"/>
<path d="M148.007 44.1642C147.758 44.2764 147.662 44.4242 147.636 44.7249C147.616 44.9798 147.626 45.0104 147.784 45.1888C148.089 45.5201 148.566 45.4742 148.795 45.097C149.12 44.5669 148.561 43.9094 148.007 44.1642Z" fill="#CBD5E1"/>
</svg>
